<?xml version="1.0" encoding="iso-8859-1"?>
<!-- Uploaded to: SVG Repo, www.svgrepo.com, Generator: SVG Repo Mixer Tools -->
<svg fill="#000000" height="800px" width="800px" version="1.1" id="Layer_1" xmlns="http://www.w3.org/2000/svg" xmlns:xlink="http://www.w3.org/1999/xlink" 
	 viewBox="0 0 512.003 512.003" xml:space="preserve">
<g>
	<g>
		<g>
			<path d="M377.431,213.344H277.344V85.333c0-11.685,9.649-21.333,21.333-21.333c11.685,0,21.333,9.649,21.333,21.333v21.333
				c0,35.249,28.751,64,64,64c35.249,0,64-28.751,64-64V21.333C448.01,9.551,438.459,0,426.677,0s-21.333,9.551-21.333,21.333
				v85.333c0,11.685-9.649,21.333-21.333,21.333c-11.685,0-21.333-9.649-21.333-21.333V85.333c0-35.249-28.751-64-64-64
				c-35.249,0-64,28.751-64,64v128.011h-98.291c-75.597,0-136.384,67.611-136.384,149.312c0,77.642,52.231,148.36,119.65,149.331
				c21.927,0.317,53.623-4.087,83.219-13.106c33.182-10.128,75.001-10.139,108.041-0.01c28.424,8.693,64.059,13.459,83.327,13.115
				c67.246-1.275,117.762-71.374,117.762-149.33C512.002,280.654,452.802,213.344,377.431,213.344z M393.453,469.327
				c-14.851,0.266-46.02-3.903-70.05-11.252c-41.172-12.621-91.683-12.608-132.979-0.003c-25.321,7.716-52.613,11.508-70.157,11.254
				c-41.005-0.591-77.599-50.137-77.599-106.669c0-59.089,42.756-106.645,93.717-106.645h241.045
				c50.5,0,91.904,47.076,91.904,106.645C469.335,419.678,434.112,468.556,393.453,469.327z"/>
			<path d="M384.01,341.333c11.776,0,21.333-9.557,21.333-21.333s-9.557-21.333-21.333-21.333s-21.333,9.557-21.333,21.333
				S372.234,341.333,384.01,341.333z"/>
			<path d="M384.01,384c-11.776,0-21.333,9.557-21.333,21.333s9.557,21.333,21.333,21.333s21.333-9.557,21.333-21.333
				S395.786,384,384.01,384z"/>
			<path d="M341.344,341.333c-11.776,0-21.333,9.557-21.333,21.333S329.568,384,341.344,384c11.776,0,21.333-9.557,21.333-21.333
				S353.12,341.333,341.344,341.333z"/>
			<path d="M426.677,341.333c-11.776,0-21.333,9.557-21.333,21.333S414.901,384,426.677,384s21.333-9.557,21.333-21.333
				S438.453,341.333,426.677,341.333z"/>
			<path d="M170.677,341.333h-21.333V320c0-11.782-9.551-21.333-21.333-21.333c-11.782,0-21.333,9.551-21.333,21.333v21.333H85.344
				c-11.782,0-21.333,9.551-21.333,21.333S73.562,384,85.344,384h21.333v21.333c0,11.782,9.551,21.333,21.333,21.333
				c11.782,0,21.333-9.551,21.333-21.333V384h21.333c11.782,0,21.333-9.551,21.333-21.333S182.459,341.333,170.677,341.333z"/>
			<path d="M277.344,277.333h-42.667c-11.782,0-21.333,9.551-21.333,21.333c0,11.782,9.551,21.333,21.333,21.333h42.667
				c11.782,0,21.333-9.551,21.333-21.333C298.677,286.885,289.126,277.333,277.344,277.333z"/>
			<path d="M262.259,347.582l-42.667,42.667c-8.331,8.331-8.331,21.839,0,30.17c8.331,8.331,21.839,8.331,30.17,0l42.667-42.667
				c8.331-8.331,8.331-21.839,0-30.17C284.097,339.251,270.59,339.251,262.259,347.582z"/>
		</g>
	</g>
</g>
</svg>